<svg xmlns="http://www.w3.org/2000/svg" viewBox="0 0 12 12" class="design-iconfont">
  <path d="M 4.95989990234375 8.835399627685547 C 6.151479721069336 8.835399627685547 7.12090015411377 7.865979671478271 7.12090015411377 6.674399852752686 C 7.12090015411377 5.969160079956055 6.774779796600342 5.306489944458008 6.195029735565186 4.901750087738037 L 5.749710083007812 4.590859889984131 L 6.270110130310059 2.383299827575684 L 9.199899673461914 2.383299827575684 L 9.199899673461914 0.7999998927116394 L 0.7999999523162842 0.7999998927116394 L 0.7999999523162842 2.383299827575684 L 3.729830026626587 2.383299827575684 L 4.242630004882812 4.560519695281982 L 3.775349855422974 4.867889881134033 C 3.164489984512329 5.269700050354004 2.799799919128418 5.945029735565186 2.799799919128418 6.674399852752686 C 2.799799919128418 7.865979671478271 3.76882004737854 8.835399627685547 4.95989990234375 8.835399627685547 M 4.95989990234375 9.63539981842041 C 3.325500011444092 9.63539981842041 1.999799966812134 8.309700012207031 1.999799966812134 6.674399852752686 C 1.999799966812134 5.639729976654053 2.531149864196777 4.728739738464355 3.335710048675537 4.199520111083984 L 3.096359968185425 3.183300018310547 L 0.5993999242782593 3.183300018310547 C 0.2681999206542969 3.183300018310547 -6.790160966829717e-08 2.915099859237671 -6.790160966829717e-08 2.583899974822998 L -6.790160966829717e-08 0.5993999242782593 C -6.790160966829717e-08 0.2681999206542969 0.2681999206542969 -9.078979701371281e-08 0.5993999242782593 -9.078979701371281e-08 L 9.399600028991699 -9.078979701371281e-08 C 9.730799674987793 -9.078979701371281e-08 9.999899864196777 0.2681999206542969 9.999899864196777 0.5993999242782593 L 9.999899864196777 2.583899974822998 C 9.999899864196777 2.915099859237671 9.730799674987793 3.183300018310547 9.399600028991699 3.183300018310547 L 6.903450012207031 3.183300018310547 L 6.652979850769043 4.245790004730225 C 7.419429779052734 4.780869960784912 7.920899868011475 5.669260025024414 7.920899868011475 6.674399852752686 C 7.920899868011475 8.309700012207031 6.595200061798096 9.63539981842041 4.95989990234375 9.63539981842041 Z" fill="#fff" transform="rotate(180 5.5 5.3175)"/>
</svg>
